<?xml version="1.0" standalone="no"?>
<!DOCTYPE svg PUBLIC "-//W3C//DTD SVG 1.1//EN" "http://www.w3.org/Graphics/SVG/1.1/DTD/svg11.dtd" >
<svg xmlns="http://www.w3.org/2000/svg">
<metadata>Generated by IcoMoon</metadata>
<defs>
<font id="icomoon" horiz-adv-x="1024">
<font-face units-per-em="1024" ascent="960" descent="-64" />
<missing-glyph horiz-adv-x="1024" />
<glyph unicode="&#x20;" horiz-adv-x="512" d="" />
<glyph unicode="&#xe900;" glyph-name="chevron-right" d="M372.239 17.861l365.706 365.706c23.835 23.835 23.835 62.415 0 86.185l-365.706 365.706c-23.835 23.835-62.415 23.835-86.185 0s-23.835-62.415 0-86.185l322.613-322.613-322.613-322.613c-23.835-23.835-23.835-62.415 0-86.185s62.415-23.835 86.185 0z" />
<glyph unicode="&#xe901;" glyph-name="cart" d="M413.923 132.428c0-35.758-29.628-65.385-65.385-65.385s-65.385 29.628-65.385 65.385 29.628 65.385 65.385 65.385 65.385-29.628 65.385-65.385zM871.624 132.428c0-35.758-29.628-65.385-65.385-65.385s-65.385 29.628-65.385 65.385 29.628 65.385 65.385 65.385 65.385-29.628 65.385-65.385zM937.009 688.207v-261.544c0-16.346-12.77-30.65-29.117-32.693l-533.302-62.32c2.554-11.749 6.641-23.498 6.641-35.758 0-11.749-7.152-22.477-12.26-32.693h469.961c17.878 0 32.693-14.813 32.693-32.693s-14.813-32.693-32.693-32.693h-523.086c-17.878 0-32.693 14.813-32.693 32.693 0 15.836 22.986 54.147 31.161 69.984l-90.417 420.41h-104.209c-17.878 0-32.693 14.813-32.693 32.693s14.813 32.693 32.693 32.693h130.772c34.226 0 35.247-40.866 40.355-65.385h613.503c17.878 0 32.693-14.813 32.693-32.693z" />
<glyph unicode="&#xe902;" glyph-name="chevron-left" d="M737.947 104.072l-322.614 322.614 322.614 322.614c23.835 23.835 23.835 62.417 0 86.185s-62.417 23.835-86.185 0l-365.706-365.706c-23.835-23.835-23.835-62.417 0-86.185l365.706-365.706c23.835-23.835 62.417-23.835 86.185 0s23.835 62.417 0 86.185z" />
<glyph unicode="&#xe903;" glyph-name="chevron-down" d="M118.54 561.188l351.979-351.979c22.938-22.938 60.071-22.938 82.951 0l351.979 351.979c22.938 22.938 22.938 60.071 0 82.951s-60.071 22.938-82.951 0l-310.505-310.505-310.505 310.505c-22.938 22.938-60.071 22.938-82.951 0s-22.938-60.071 0-82.951z" />
<glyph unicode="&#xe904;" glyph-name="chevron-up" d="M905.475 292.145l-351.983 351.983c-22.938 22.938-60.072 22.938-82.951 0l-351.983-351.983c-22.938-22.938-22.938-60.072 0-82.951s60.072-22.938 82.951 0l310.508 310.508 310.508-310.508c22.938-22.938 60.072-22.938 82.951 0s22.938 60.072 0 82.951z" />
<glyph unicode="&#xe905;" glyph-name="arrow-up" d="M512 800.009v0c206.188 0 373.336-167.148 373.336-373.336v0c0-206.188-167.148-373.336-373.336-373.336s-373.336 167.148-373.336 373.336c0 206.188 167.148 373.336 373.336 373.336zM512 853.342c-235.644 0-426.672-191.026-426.672-426.672s191.026-426.672 426.672-426.672c235.644 0 426.672 191.026 426.672 426.672v0c0 235.644-191.026 426.672-426.672 426.672v0zM690.871 407.709c-4.83-4.84-11.505-7.833-18.88-7.833s-14.051 2.993-18.879 7.833l-0.001 0.001-141.11 141.252-141.134-141.252c-4.838-4.817-11.511-7.795-18.88-7.795-14.778 0-26.759 11.981-26.759 26.759 0 7.41 3.010 14.116 7.878 18.962l160.001 160.001c4.83 4.84 11.505 7.833 18.88 7.833s14.051-2.993 18.879-7.833l160.001-160.001c4.84-4.83 7.833-11.505 7.833-18.88s-2.993-14.051-7.833-18.879l-0.001-0.001zM512 240.004c-14.729 0-26.668 11.939-26.668 26.668v0 266.668c0 14.729 11.939 26.668 26.668 26.668s26.668-11.939 26.668-26.668v0-266.668c0-14.729-11.939-26.668-26.668-26.668v0z" />
<glyph unicode="&#xe906;" glyph-name="arrow-right" d="M885.329 426.671v0c0-206.188-167.148-373.336-373.336-373.336v0c-206.188 0-373.336 167.148-373.336 373.336s167.148 373.336 373.336 373.336c206.188 0 373.336-167.148 373.336-373.336zM938.661 426.671c0 235.644-191.026 426.672-426.672 426.672s-426.672-191.026-426.672-426.672c0-235.644 191.026-426.672 426.672-426.672v0c235.644 0 426.672 191.026 426.672 426.672v0zM493.029 247.8c-4.84 4.83-7.833 11.505-7.833 18.88s2.993 14.051 7.833 18.879l0.001 0.001 141.252 141.11-141.252 141.134c-4.817 4.838-7.795 11.511-7.795 18.88 0 14.778 11.981 26.759 26.759 26.759 7.41 0 14.116-3.010 18.962-7.878l160.001-160.001c4.84-4.83 7.833-11.505 7.833-18.88s-2.993-14.051-7.833-18.879l-160.001-160.001c-4.83-4.84-11.505-7.833-18.88-7.833s-14.051 2.993-18.879 7.833l-0.001 0.001zM325.321 426.671c0 14.729 11.939 26.668 26.668 26.668v0h266.668c14.729 0 26.668-11.939 26.668-26.668s-11.939-26.668-26.668-26.668v0h-266.668c-14.729 0-26.668 11.939-26.668 26.668v0z" />
<glyph unicode="&#xe907;" glyph-name="arrow-left" d="M138.664 426.674v0c0 206.188 167.148 373.336 373.336 373.336v0c206.188 0 373.336-167.148 373.336-373.336s-167.148-373.336-373.336-373.336c-206.188 0-373.336 167.148-373.336 373.336zM85.331 426.674c0-235.643 191.026-426.671 426.671-426.671s426.671 191.026 426.671 426.671c0 235.643-191.026 426.671-426.671 426.671v0c-235.643 0-426.671-191.026-426.671-426.671v0zM530.964 605.544c4.84-4.83 7.833-11.505 7.833-18.88s-2.993-14.051-7.833-18.879l-0.001-0.001-141.252-141.11 141.252-141.134c4.817-4.838 7.795-11.51 7.795-18.88 0-14.778-11.981-26.759-26.759-26.759-7.41 0-14.116 3.010-18.962 7.878l-160.001 160.001c-4.84 4.83-7.833 11.505-7.833 18.88s2.993 14.051 7.833 18.879l160.001 160.001c4.83 4.84 11.505 7.833 18.88 7.833s14.051-2.993 18.879-7.833l0.001-0.001zM698.67 426.674c0-14.729-11.939-26.668-26.668-26.668v0h-266.668c-14.729 0-26.668 11.939-26.668 26.668s11.939 26.668 26.668 26.668v0h266.668c14.729 0 26.668-11.939 26.668-26.668v0z" />
<glyph unicode="&#xe908;" glyph-name="heart-o" d="M865.528 564.759c0 129.351-87.461 156.51-161.112 156.51-68.587 0-145.923-74.112-169.86-102.653-11.046-13.349-34.065-13.349-45.112 0-23.938 28.541-101.27 102.653-169.86 102.653-73.653 0-161.112-27.158-161.112-156.51 0-84.239 85.159-162.494 86.081-163.414l267.448-257.781 266.989 257.321c1.382 1.382 86.541 79.637 86.541 163.876zM924.449 564.759c0-110.478-101.27-203.004-105.413-207.147l-286.781-276.193c-5.525-5.525-12.888-8.286-20.255-8.286s-14.73 2.761-20.255 8.286l-287.242 277.115c-3.683 3.223-104.954 95.748-104.954 206.224 0 134.875 82.398 215.433 220.035 215.433 80.556 0 156.050-63.525 192.415-99.429 36.367 35.904 111.857 99.429 192.415 99.429 137.637 0 220.035-80.556 220.035-215.433z" />
<glyph unicode="&#xe909;" glyph-name="heart-fill" d="M512 73.136c-7.366 0-14.73 2.761-20.255 8.286l-287.241 277.114c-3.683 3.223-104.954 95.747-104.954 206.224 0 134.875 82.398 215.432 220.035 215.432 80.556 0 156.050-63.525 192.415-99.429 36.367 35.904 111.857 99.429 192.415 99.429 137.637 0 220.035-80.556 220.035-215.432 0-110.478-101.27-203.003-105.413-207.146l-286.781-276.193c-5.525-5.525-12.888-8.286-20.255-8.286z" />
<glyph unicode="&#xe90a;" glyph-name="instagram" d="M651.178 426.674c0 76.655-62.52 139.176-139.176 139.176s-139.176-62.52-139.176-139.176 62.52-139.176 139.176-139.176 139.176 62.52 139.176 139.176zM726.202 426.674c0-118.516-95.683-214.2-214.2-214.2s-214.2 95.683-214.2 214.2 95.683 214.2 214.2 214.2 214.2-95.683 214.2-214.2zM784.916 649.572c0-27.726-22.29-50.016-50.016-50.016s-50.016 22.29-50.016 50.016 22.29 50.016 50.016 50.016 50.016-22.29 50.016-50.016zM512.002 769.176c-60.889 0-191.366 4.893-246.275-16.853-19.028-7.611-33.163-16.853-47.842-31.532s-23.921-28.814-31.532-47.842c-21.746-54.909-16.853-185.386-16.853-246.275s-4.893-191.366 16.853-246.275c7.611-19.028 16.853-33.163 31.532-47.842s28.814-23.921 47.842-31.532c54.909-21.746 185.386-16.853 246.275-16.853s191.366-4.893 246.275 16.853c19.028 7.611 33.163 16.853 47.842 31.532s23.921 28.814 31.532 47.842c21.746 54.909 16.853 185.386 16.853 246.275s4.893 191.366-16.853 246.275c-7.611 19.028-16.853 33.163-31.532 47.842s-28.814 23.921-47.842 31.532c-54.909 21.746-185.386 16.853-246.275 16.853zM929.528 426.674c0-57.627 0.543-114.711-2.718-172.338-3.262-66.87-18.485-126.127-67.413-175.056s-108.187-64.152-175.056-67.413c-57.627-3.262-114.711-2.718-172.338-2.718s-114.711-0.543-172.338 2.718c-66.87 3.262-126.127 18.485-175.056 67.413s-64.152 108.187-67.413 175.056c-3.262 57.627-2.718 114.711-2.718 172.338s-0.543 114.711 2.718 172.338c3.262 66.87 18.485 126.127 67.413 175.056s108.187 64.152 175.056 67.413c57.627 3.262 114.711 2.718 172.338 2.718s114.711 0.543 172.338-2.718c66.87-3.262 126.127-18.485 175.056-67.413s64.152-108.187 67.413-175.056c3.262-57.627 2.718-114.711 2.718-172.338z" />
<glyph unicode="&#xe90b;" glyph-name="search" d="M925.882 85.403l-193.493 193.493c44.729 59.287 71.641 134.207 71.641 215.411 0 198.643-161.033 359.676-359.676 359.676s-359.676-161.033-359.676-359.676c0-198.643 161.033-359.676 359.676-359.676 81.204 0 156.123 26.911 216.326 72.302l-0.913-0.66 193.493-193.493c9.104-8.323 21.276-13.423 34.64-13.423 28.394 0 51.409 23.016 51.409 51.409 0 13.364-5.098 25.536-13.457 34.68l0.035-0.039zM188.164 493.971c0 141.816 114.967 256.783 256.783 256.783s256.783-114.967 256.783-256.783c0-141.816-114.967-256.783-256.783-256.783v0c-141.816 0-256.783 114.967-256.783 256.783v0z" />
<glyph unicode="&#xe90c;" glyph-name="facebook" d="M938.111 424.082c0 235.333-190.774 426.111-426.106 426.111s-426.111-190.778-426.111-426.111c0-212.684 155.822-388.965 359.529-420.934v297.76h-108.191v123.173h108.191v93.879c0 106.795 63.617 165.784 160.946 165.784 46.621 0 95.385-8.325 95.385-8.325v-104.862h-53.731c-52.935 0-69.443-32.846-69.443-66.541v-79.934h118.179l-18.891-123.173h-99.288v-297.76c203.71 31.969 359.529 208.249 359.529 420.934z" />
<glyph unicode="&#xe90d;" glyph-name="arrow-down" d="M512 53.337v0c-206.188 0-373.336 167.148-373.336 373.336v0c0 206.188 167.148 373.336 373.336 373.336s373.336-167.148 373.336-373.336c0-206.188-167.148-373.336-373.336-373.336zM512 0.002c235.643 0 426.671 191.026 426.671 426.671s-191.026 426.671-426.671 426.671c-235.643 0-426.671-191.026-426.671-426.671v0c0-235.643 191.026-426.671 426.671-426.671v0zM333.131 445.636c4.83 4.84 11.505 7.833 18.88 7.833s14.051-2.993 18.879-7.833l0.001-0.001 141.11-141.252 141.134 141.252c4.838 4.817 11.51 7.795 18.88 7.795 14.778 0 26.759-11.981 26.759-26.759 0-7.41-3.010-14.116-7.878-18.962l-160.001-160.001c-4.83-4.84-11.505-7.833-18.88-7.833s-14.051 2.993-18.879 7.833l-160.001 160.001c-4.84 4.83-7.833 11.505-7.833 18.88s2.993 14.051 7.833 18.879l0.001 0.001zM512 613.342c14.729 0 26.668-11.939 26.668-26.668v0-266.668c0-14.729-11.939-26.668-26.668-26.668s-26.668 11.939-26.668 26.668v0 266.668c0 14.729 11.939 26.668 26.668 26.668v0z" />
<glyph unicode="&#xe90e;" glyph-name="account" d="M511.99 426.663c-1.012-0.018-2.209-0.030-3.406-0.030-57.862 0-110.143 23.899-147.509 62.365l-0.049 0.050c-38.514 37.414-62.416 89.696-62.416 147.559 0 1.197 0.010 2.391 0.030 3.586l-0.003-0.179c-0.018 1.013-0.030 2.21-0.030 3.41 0 57.857 23.913 110.132 62.392 147.479l0.050 0.050c37.443 38.515 89.748 62.415 147.636 62.415 1.17 0 2.338-0.010 3.504-0.030l-0.175 0.003c1.026 0.018 2.233 0.030 3.447 0.030 57.841 0 110.102-23.9 147.443-62.365l0.050-0.050c38.514-37.422 62.416-89.711 62.416-147.581 0-1.19-0.010-2.376-0.030-3.561l0.003 0.178c0.017-1.008 0.029-2.192 0.029-3.384 0-57.871-23.898-110.159-62.365-147.532l-0.050-0.049c-37.393-38.499-89.643-62.39-147.478-62.39-1.227 0-2.45 0.010-3.67 0.031l0.184-0.003zM511.99 319.375c61.955-0.838 121.613-8.982 178.676-23.605l-5.251 1.141c65.758-15.545 123.694-40.934 175.503-74.897l-2.074 1.276q78.597-51.155 78.597-116.018v-107.287h-850.873v107.287q0 64.889 78.597 116.018c49.736 32.671 107.668 58.056 169.706 72.869l3.721 0.75c51.818 13.5 111.481 21.645 172.911 22.457l0.515 0.006z" />
<glyph unicode="&#xe911;" glyph-name="long-arrow-right" d="M749.48 290.887c-3.673 3.663-5.946 8.731-5.946 14.329s2.273 10.664 5.946 14.329l107.127 107.089-107.142 107.108c-3.667 3.667-5.934 8.733-5.934 14.329 0 11.191 9.072 20.263 20.263 20.263 5.596 0 10.662-2.268 14.329-5.934v0l121.427-121.374c3.673-3.663 5.946-8.731 5.946-14.329s-2.273-10.664-5.946-14.329l-121.427-121.427c-3.663-3.673-8.731-5.946-14.329-5.946s-10.664 2.273-14.329 5.946v0zM885.226 426.633c0-11.171-14.931-20.238-33.334-20.238h-700.066c-18.403 0-33.334 8.995-33.334 20.238s14.931 20.238 33.334 20.238h700.066c18.403 0 33.334-9.067 33.334-20.238z" />
<glyph unicode="&#xe912;" glyph-name="long-arrow-up" d="M659.222 684.182c-3.971-3.983-9.468-6.448-15.535-6.448s-11.564 2.465-15.535 6.448l-116.116 116.155-116.136-116.175c-3.975-3.975-9.47-6.434-15.535-6.434-12.133 0-21.971 9.836-21.971 21.971 0 6.069 2.459 11.56 6.434 15.535v0l131.604 131.662c3.971 3.983 9.468 6.448 15.535 6.448s11.564-2.465 15.535-6.448l131.663-131.663c3.983-3.971 6.448-9.468 6.448-15.535s-2.465-11.564-6.448-15.535v0zM512.032 831.372c12.111 0 21.944-16.191 21.944-36.144v-759.080c0-19.953-9.751-36.144-21.944-36.144s-21.944 16.191-21.944 36.144v759.080c0 19.953 9.83 36.144 21.944 36.144z" />
<glyph unicode="&#xe913;" glyph-name="long-arrow-down" d="M364.779 169.165c3.971 3.983 9.468 6.448 15.535 6.448s11.564-2.465 15.535-6.448l116.116-116.155 116.136 116.175c3.975 3.975 9.47 6.434 15.535 6.434 12.133 0 21.971-9.836 21.971-21.971 0-6.069-2.459-11.56-6.434-15.535v0l-131.604-131.662c-3.971-3.983-9.468-6.448-15.535-6.448s-11.564 2.465-15.535 6.448l-131.663 131.663c-3.983 3.971-6.448 9.468-6.448 15.535s2.465 11.564 6.448 15.535v0zM511.968 21.976c-12.111 0-21.944 16.191-21.944 36.144v759.079c0 19.953 9.751 36.144 21.944 36.144s21.944-16.191 21.944-36.144v-759.079c0-19.953-9.83-36.144-21.944-36.144z" />
<glyph unicode="&#xe914;" glyph-name="long-arrow-left" d="M274.51 562.449c3.673-3.663 5.946-8.731 5.946-14.329s-2.273-10.664-5.946-14.329l-107.127-107.090 107.143-107.108c3.667-3.667 5.934-8.733 5.934-14.329 0-11.191-9.072-20.263-20.263-20.263-5.596 0-10.662 2.268-14.329 5.934v0l-121.427 121.374c-3.673 3.663-5.946 8.731-5.946 14.329s2.273 10.664 5.946 14.329l121.428 121.428c3.663 3.673 8.731 5.946 14.329 5.946s10.664-2.273 14.329-5.946v0zM138.763 426.704c0 11.171 14.931 20.238 33.334 20.238h700.070c18.403 0 33.334-8.995 33.334-20.238s-14.931-20.238-33.334-20.238h-700.070c-18.403 0-33.334 9.067-33.334 20.238z" />
<glyph unicode="&#xe928;" glyph-name="close" d="M512 495.505l-344.258 344.258-68.842-68.842 344.258-344.258-344.258-344.258 68.842-68.842 344.258 344.258 344.258-344.258 68.842 68.842-344.258 344.258 344.258 344.258-68.842 68.842-344.258-344.258z" />
</font>
</defs>
</svg>
